<svg version="1.2" xmlns="http://www.w3.org/2000/svg" viewBox="0 0 1455 1075" width="150" height="111">
	<style>
		.s0 { fill: #000000 } 
	</style>
	<path class="s0" d="m1396.79 242c-2.89 0-5.57 1.41-7.23 3.76-5.07 7.16-49.56 71.01-49.56 102.78 0 31.31 25.5 56.77 56.79 56.77 31.29 0 56.79-25.46 56.79-56.77 0-31.81-44.49-95.63-49.56-102.78-1.66-2.35-4.37-3.76-7.23-3.76z"/>
	<path class="s0" d="m1349.85 125.02c-39.15-7.95-79.72-4.98-117.3 8.57l-155.22 55.89-7.54-20.9c-4.42-12.23-17.87-18.53-30.1-14.12l-71.56 25.8 56.97 158.1 71.61-25.81c12.23-4.41 18.54-17.85 14.13-30.08l-7.54-20.9 155.22-55.9c24.38-8.77 50.68-10.68 76.06-5.56l64.54 13.11 15.27-75.08z"/>
	<path class="s0" d="m192.39 826.2l-40.86 63.66c-29.4 45.98-50.85 96.51-62.95 150.09l-8.33 35.25-80.25 0.05 12.1-52.59c14.21-62.58 39.1-121.39 73.68-175.35l40.86-63.31z"/>
	<path class="s0" d="m481.79 5.23c4.94 0.37 7.74 1.81 11.08 5.34q0.85 0.99 1.73 2.01 0.97 1.13 1.98 2.3 1.05 1.22 2.13 2.49 2.29 2.65 4.58 5.31 3.57 4.14 7.14 8.3c22.92 29.94 22.92 29.94 54.23 48.53 5.12-0.03 7.43-2.26 10.97-5.67 2.79-2.83 2.79-2.83 4.73-6.22 3.17-3.39 5.8-5.48 10.39-6.47 5.38-0.01 9.14 0.2 13.83 3q1.17 0.68 2.37 1.39 1.36 0.91 2.75 1.85 0.8 0.53 1.62 1.08c6.84 4.98 11.98 11.66 17.34 18.13q2.55 3.08 5.12 6.14 1.65 1.98 3.3 3.96 0.76 0.9 1.53 1.83c2.91 3.52 5.54 7.13 8.01 10.97 9.93 14.99 23.01 26.56 40.79 30.77 15.86 2.83 32.46-0.68 48.08-3.68 13.18-2.53 26.25-4.72 38.3 2.41 2.71 2.05 5.1 4.25 7.46 6.7 10.35 10.8 10.35 10.8 22.35 19.64q1.26 0.78 2.55 1.57c14.85 8.45 34 11.02 50.87 12.18 2.75 0.24 5.4 0.85 8.09 1.41q5.01 0.48 10.04 0.8c28.45 1.98 53.22 11.12 72.43 32.67 14.34 16.75 25.68 35.61 34.7 55.67 0.56 1.22 0.56 1.22 1.13 2.47 10.02 22.26 15.2 47.01 18.27 71.14q0.24 1.9 0.49 3.86 0.59 5.11 1.07 10.24 0.21 2.23 0.42 4.46 0.35 3.64 0.7 7.28c3.96 41.29 12.58 80.37 25.09 119.86 3.98 12.54 8.63 27.49 2.31 40.02-5.52 9.13-13.43 16.24-21.57 23q-1.16 0.96-2.35 1.96c-9.1 7.54-18.38 14.86-27.69 22.14q-4.47 3.5-8.92 7.01c-59.02 46.33-59.02 46.33-91.5 44.82-13.82-2.18-24.82-10.07-36.23-17.6-14.49-9.55-24.68-15.93-42.56-13.08q-1.15 0.18-2.34 0.37-0.96 0.19-1.95 0.39c-6.3 0.32-11.32-1.61-16.65-4.76q-0.92-0.53-1.87-1.08c-5.68-3.34-11.02-7.13-16.27-11.1-4.27-3.15-8.79-6.21-14.36-5.42-4.87 4.6-4.92 12.36-5.16 18.62q-0.01 2.58-0.01 5.15c-0.1 7.75-1.07 15.34-6.27 21.31-4.67 2.98-8.27 2.72-13.65 1.82-3.53-1.04-6.97-2.23-10.44-3.46-32.7-11.34-67.01-3.81-97.44 10.55q-3.8 1.85-7.56 3.75-1.22 0.61-2.46 1.24c-18.34 9.42-33.89 22.07-46.4 38.47-0.68 0.87-0.68 0.87-1.37 1.76-21.82 28.23-41.4 68.09-39.52 104.54-0.44 10.15-3.42 21.73-10.84 29.06q-1.84 1.67-3.71 3.3-0.99 0.9-2.01 1.82-3.16 2.85-6.34 5.66c-22.4 20.01-35.46 36.57-37.37 67.5-0.14 2.82-0.18 5.64-0.17 8.46-0.08 6.04-1.99 9.71-6.04 14.13-8.87 8.34-19.73 13.17-30.85 17.75q-3.32 1.39-6.63 2.82c-13.54 5.71-13.54 5.71-21.13 4.46-7.18-3.47-9.75-12.25-12.28-19.23q-0.44-1.4-0.89-2.84c-9.4-28.06-42.03-41.05-66.38-53.23q-2.68-1.34-5.35-2.69-13.83-6.95-27.72-13.77c-131.51-64.65-131.51-64.65-148.95-112.49-9.49-30.16 0.29-57.9 14.27-84.97 4.45-8.46 9.15-16.77 13.87-25.08 18.21-32.07 35.2-63.47 39.34-100.64q0.43-2.67 0.9-5.33c0.78-3.38 0.78-3.38 0.07-5.75q0.74-0.63 1.5-1.27c-0.25-0.86-0.25-0.86-0.51-1.73-0.62-3.09-0.51-5.89-0.42-9.04 0.12-10.82-1.56-21.46-2.99-32.16-1.73-13.15-3.26-26.13-3.53-39.41q-0.08-1.53-0.16-3.11c-0.93-23.89 2.19-48.51 11.49-70.6q0.46-1.11 0.93-2.26c3-6.24 8.89-11.67 15.32-14.18 10.59-2.06 19.23 3.68 27.95 8.84 5.57 3.27 11 5.74 17.26 7.39q1.59 0.49 3.23 0.98c4.78 0.42 9.18-0.18 13.2-2.95 3.06-2.94 4.56-5.86 5.07-10.17-0.06-8.28-3.59-14.15-8.7-20.36q-1.47-1.82-2.94-3.64-2.31-2.85-4.64-5.68c-8.06-9.84-14.14-18.24-14.16-31.57 3.88-37.72 44.57-74.78 71.45-98.47q1.33-1.17 2.69-2.37 3.87-3.31 7.86-6.48c0.97-0.79 0.97-0.79 1.97-1.59q3.34-2.66 6.7-5.29 1.05-0.83 2.13-1.69c5.07-3.92 11.36-8.7 18.03-8.63 5.33 0.91 8.16 2.47 11.56 6.68 5.62 8.55 7.41 18.85 9.04 28.77 1.36 8.01 3.46 16.37 9.9 21.85 7.51 4.94 14.17 6.57 23.16 6.08 1.06-0.05 1.06-0.05 2.15-0.11 5.23-0.28 10.38-0.84 15.56-1.6q4.99-0.7 10-1.29c51.58-2.58 51.58-2.58 96-23.05 3.19-4.12 3.97-8.2 3.44-13.35-6.26-27.59-25.33-51.73-40.92-74.76-32.9-48.6-32.9-48.6-33.44-73.78q-0.12-1.84-0.24-3.73c0.05-7.35 1.44-15.15 7.84-19.35z"/>
	<path class="s0" d="m989.01 636.32c5.58-3.17 12.06-4.73 18.18-6.54 13.83-4.11 23.41-11.21 33.09-21.82 9.16-10.02 9.16-10.02 12.79-12.02 2.96 0.09 2.96 0.09 5.42 1.87 2.74 4.99 4.43 9.77 5.68 15.29q0.26 1.11 0.52 2.26c3.2 14.43 3.9 28.62 3.83 43.37q0 1.03 0 2.09c0 6.43-0.1 11.37-3.09 17.19-3.99 3.35-7.81 3.49-12.83 3.07-2.59-0.67-4.88-1.38-7.35-2.35q-1.05-0.4-2.14-0.82c-10.27-4.14-19.96-9.58-29.66-14.89q-4.4-2.39-8.82-4.72-2.59-1.38-5.17-2.77-1.16-0.6-2.35-1.23c-4.76-2.61-9.15-5.61-11.76-10.52-0.13-3.61 0.76-5.24 3.66-7.46z"/>
</svg>